<svg width="18" height="18" fill="none" xmlns="http://www.w3.org/2000/svg"><path d="M9 0a9 9 0 100 18A9 9 0 009 0zm0 11.48A2.484 2.484 0 016.52 9 2.484 2.484 0 019 6.52 2.484 2.484 0 0111.48 9 2.484 2.484 0 019 11.48z" fill="#FECE85"/><path d="M9 0A9 9 0 00.452 11.823a3.971 3.971 0 002.808 1.16 3.99 3.99 0 003.717-2.55A2.466 2.466 0 016.519 9 2.484 2.484 0 019 6.52 2.484 2.484 0 0111.48 9a2.47 2.47 0 01-.723 1.75v2.125a1.813 1.813 0 003.09 1.28c.343-.341.531-.796.531-1.28v-2.789a.363.363 0 01.725 0v.978a1.813 1.813 0 002.028 1.798A9 9 0 009 0z" fill="#FECE85"/><path d="M18 9a8.964 8.964 0 01-.869 3.862 1.813 1.813 0 01-2.029-1.797v-.979a.362.362 0 00-.724 0v2.79c0 .483-.188.938-.53 1.28a1.813 1.813 0 01-3.091-1.28V10.75A2.47 2.47 0 0011.48 9 2.484 2.484 0 009 6.52 2.484 2.484 0 006.52 9c0 .534.169 1.029.457 1.434a3.99 3.99 0 01-3.717 2.55 3.971 3.971 0 01-2.808-1.16A9 9 0 1118 9z" fill="#FEC165"/><path d="M18 9v2.064a1.083 1.083 0 01-1.087 1.087c-.6 0-1.086-.486-1.086-1.087v-.978A1.083 1.083 0 0014.741 9c-.6 0-1.087.486-1.087 1.086v2.79a1.083 1.083 0 01-1.086 1.087c-.6-.001-1.087-.488-1.087-1.088V9a2.484 2.484 0 00-2.48-2.48A2.484 2.484 0 006.518 9 3.26 3.26 0 110 9a9 9 0 0118 0z" fill="#F14566"/><path d="M1.81 9c0 1.104.2 2.16.563 3.137A3.26 3.26 0 010 9 9 9 0 019.905.045 9.002 9.002 0 001.811 9z" fill="#F14566"/><path d="M1.81 9C1.81 4.335 5.36.5 9.906.045a9 9 0 100 17.91A9.002 9.002 0 011.811 9z" fill="#FEC165"/><path d="M9.905.045a11.485 11.485 0 00-.563-.038A9 9 0 000 9a3.26 3.26 0 002.373 3.137A9.002 9.002 0 019.906.044z" fill="#E03355"/><path d="M1.672 8.97a.272.272 0 01-.272-.272V7.612a.272.272 0 01.544 0v1.086c0 .15-.122.272-.272.272zM15.99 7.594a.272.272 0 01-.272-.272V6.235a.272.272 0 11.544 0v1.087c0 .15-.122.272-.272.272zM4.086 6.679a.272.272 0 01-.265-.21l-.247-1.058a.272.272 0 01.529-.124l.247 1.058a.272.272 0 01-.264.334zM8.297 5.222a.272.272 0 01-.264-.21l-.248-1.058a.272.272 0 01.53-.123l.247 1.058a.272.272 0 01-.265.333zM12.864 4.466a.272.272 0 01-.075-.532l1.044-.302a.272.272 0 01.15.522l-1.043.302a.272.272 0 01-.075.01zM3.438 10.617a.271.271 0 01-.238-.403l.524-.952a.272.272 0 11.476.262l-.524.952a.271.271 0 01-.238.14zM13.124 7.63a.272.272 0 01-.238-.403l.525-.95a.272.272 0 01.475.261l-.524.952a.271.271 0 01-.238.14zM5.47 3.36a.27.27 0 01-.193-.463l.765-.772a.272.272 0 01.385.382l-.764.772a.27.27 0 01-.193.08zM11.176 2.919a.27.27 0 01-.165-.057l-.862-.66a.272.272 0 11.33-.432l.863.661a.272.272 0 01-.166.488z" fill="#FEF0AE"/></svg>