<?xml version="1.0" encoding="utf-8"?><svg viewBox="0 0 512 512" xmlns="http://www.w3.org/2000/svg" xmlns:xlink="http://www.w3.org/1999/xlink"><style>:root>svg{display:none}:root>svg:target{display:block}</style><svg viewBox="0 0 32 32" id="close" xmlns="http://www.w3.org/2000/svg"><path d="M5 27L27 5M5 5l22 22"/></svg><svg viewBox="0 0 12 23" id="facebook" xmlns="http://www.w3.org/2000/svg"><path d="M9.78 3.801h2.188L12 0H8.38C5.496.172 3.539 2.075 3.539 5.404v3.013H0v4.07h3.539V23h4.214V12.487h4.054V8.385H7.753V5.788c0-1.185.322-1.987 2.027-1.987z"/></svg><svg viewBox="0 0 81 16" id="left-arrow" xmlns="http://www.w3.org/2000/svg"><path d="M.293 7.293a1 1 0 000 1.414l6.364 6.364a1 1 0 001.414-1.414L2.414 8l5.657-5.657A1 1 0 006.657.93L.293 7.293zM81 7H1v2h80V7z"/></svg><svg viewBox="0 0 512 512" id="link" xmlns="http://www.w3.org/2000/svg"><path d="M476.853 35.148c-46.864-46.864-122.842-46.864-169.706-.001L206.853 135.441c-48.475 48.477-43.987 125.717 0 169.706 7.366 7.366 15.516 13.372 24.122 18.305l18.305-18.305c12.006-12.008 7.78-26.045 7.564-36.174-2.635-1.868-5.198-3.887-7.564-6.253-22.573-22.571-23.588-61.265 0-84.853L349.572 77.575c23.399-23.399 61.454-23.399 84.853 0 23.399 23.399 23.399 61.454 0 84.853l-66.293 66.293c1.917 10.607 13.422 35.733 7.504 77.181.289-.284.635-.467.923-.754l100.294-100.294c46.862-46.864 46.862-122.842 0-169.706z"/><path d="M312.918 199.081c-7.365-7.366-15.516-13.372-24.12-18.305l-18.305 18.305c-12.008 12.006-7.782 26.043-7.566 36.172 2.637 1.868 5.2 3.887 7.566 6.253 22.573 22.573 23.588 61.265 0 84.853L162.427 434.425c-23.399 23.399-61.454 23.399-84.853 0-23.399-23.399-23.399-61.454 0-84.853l74.067-74.067c-1.917-10.607-13.423-35.733-7.504-77.181-.289.284-.637.469-.925.756L35.147 307.147c-46.862 46.864-46.862 122.842 0 169.706 46.864 46.862 122.841 46.862 169.705 0l108.066-108.066c47.576-47.576 44.976-124.731 0-169.706z"/></svg><svg viewBox="0 0 130 35" id="logo" xmlns="http://www.w3.org/2000/svg"><path d="M59.849 34.95h9.817l-4.977-7.35-4.84 7.35zM57.392 16.824L46.135.202 34.846 16.993 23.55.202 0 34.95h12.726L23.55 18.515l11.208 16.303.086.114.09-.114 11.2-16.303 4.982 7.57 5.77-8.513.506-.749zM130 0h-12.502l-12.119 17.499L117.506 35H130l-12.127-17.501L130 0zM80.73 0L92.86 17.479l-5.97 8.607-6.162 8.875h12.5l12.134-17.482L93.236 0H80.73z"/><path d="M85.88 26.086l.516-.744L69.67.202l-11.774 17.37-6.282 9.27-5.495 8.108h12.724l5.337-8.102 5.49-8.332L80.23 34.222l5.648-8.136z"/></svg><svg fill="none" viewBox="0 0 142 24" id="next-proj" xmlns="http://www.w3.org/2000/svg"><path d="M141.061 13.06a1.501 1.501 0 000-2.12l-9.546-9.547a1.5 1.5 0 00-2.122 2.122L137.879 12l-8.486 8.485a1.501 1.501 0 002.122 2.122l9.546-9.546zM0 13.5h140v-3H0v3z" fill="#000"/></svg><svg viewBox="0 0 81 16" id="right-arrow" xmlns="http://www.w3.org/2000/svg"><path d="M80.707 8.707a1 1 0 000-1.414L74.343.929a1 1 0 10-1.414 1.414L78.586 8l-5.657 5.657a1 1 0 001.414 1.414l6.364-6.364zM0 9h80V7H0v2z"/></svg><svg viewBox="0 0 32 32" id="search" xmlns="http://www.w3.org/2000/svg"><path d="M14.667 25.333c5.89 0 10.666-4.775 10.666-10.666S20.558 4 14.667 4 4 8.776 4 14.667c0 5.89 4.776 10.666 10.667 10.666zM28 28l-5.8-5.8"/></svg><svg viewBox="0 0 32 32" id="toggle-to-dark" xmlns="http://www.w3.org/2000/svg"><path d="M28 17.053A12 12 0 1114.947 4 9.333 9.333 0 0028 17.053z" stroke="#151515" stroke-width="2" stroke-linecap="round" stroke-linejoin="round"/></svg><svg viewBox="0 0 32 32" id="toggle-to-light" xmlns="http://www.w3.org/2000/svg"><path d="M16 22.667a6.667 6.667 0 100-13.334 6.667 6.667 0 000 13.334zM16 1.333V4M16 28v2.667M5.627 5.627L7.52 7.52M24.48 24.48l1.893 1.893M1.333 16H4M28 16h2.667M5.627 26.373L7.52 24.48M24.48 7.52l1.893-1.893" stroke="#fff" stroke-width="2" stroke-linecap="round" stroke-linejoin="round"/></svg><svg viewBox="0 0 25 20" id="twitter" xmlns="http://www.w3.org/2000/svg"><path fill-rule="evenodd" clip-rule="evenodd" d="M22.471 5.714v-.571c.995-.706 1.852-1.546 2.503-2.656a.1.1 0 000-.134c-.034-.034-.103-.067-.137-.034a8.916 8.916 0 01-2.331.706 5.201 5.201 0 001.817-2.52c.034-.034 0-.102-.034-.135a.106.106 0 00-.138 0c-.96.571-2.022.94-3.12 1.176C20.071.571 18.7 0 17.294 0c-2.88 0-5.211 2.286-5.211 5.11 0 .335.034.672.103 1.008A14.48 14.48 0 011.968.975C1.934.94 1.9.94 1.866.94c-.035 0-.069.034-.103.067a4.804 4.804 0 00-.72 2.555c0 1.58.72 3.025 1.954 4a4.785 4.785 0 01-1.817-.571c-.069-.034-.103-.034-.137 0-.035.033-.069.067-.069.1v.068c0 2.252 1.509 4.235 3.669 4.874A5.888 5.888 0 012.929 12c-.035 0-.07 0-.103.034-.035.033-.035.1-.035.134.652 1.983 2.435 3.361 4.526 3.53a10.236 10.236 0 01-5.966 1.915c-.411 0-.823-.033-1.2-.067-.068-.033-.103 0-.137.067-.034.034 0 .101.034.135A14.775 14.775 0 007.9 20c9.12 0 14.571-7.26 14.571-14.286z"/></svg><svg viewBox="0 0 32 18" id="vk" xmlns="http://www.w3.org/2000/svg"><path d="M28.143 12.042c-.215-.201-.431-.402-.645-.605-.976-.923-1.023-1.476-.186-2.583.47-.672.968-1.316 1.463-1.955.388-.5.773-.997 1.14-1.503.791-1.061 1.581-2.168 2-3.46.232-.83 0-1.198-.837-1.336-.186-.047-.325-.047-.465-.047h-5.068c-.65 0-.976.277-1.209.83a45.75 45.75 0 00-.315.738 23.13 23.13 0 01-.661 1.476c-.837 1.614-1.72 3.182-2.976 4.52l-.055.055c-.267.267-.58.58-1.014.452-.604-.185-.744-1.153-.744-1.476v-5.81C18.478.507 18.292.183 17.455 0h-5.254c-.697 0-1.069.277-1.44.692-.187.276-.28.415.185.507.883.184 1.348.738 1.488 1.66.232 1.384.232 2.767.093 4.15-.047.416-.14.83-.28 1.2-.278.6-.65.737-1.208.369-.465-.37-.837-.83-1.162-1.292C8.62 5.534 7.645 3.597 6.808 1.614c-.232-.553-.65-.922-1.255-.922a75.05 75.05 0 00-4.557 0c-.93.046-1.209.46-.837 1.291 1.674 3.643 3.487 7.194 5.905 10.422 1.209 1.66 2.65 3.09 4.464 4.15 2.045 1.2 4.277 1.522 6.648 1.43 1.116-.046 1.442-.323 1.488-1.43.047-.737.14-1.475.511-2.167.326-.646.884-.784 1.535-.369.325.185.604.461.837.738.604.692 1.209 1.384 1.86 2.03.836.83 1.766 1.29 2.975 1.198h4.65c.743-.046 1.115-.968.697-1.798-.279-.6-.697-1.107-1.116-1.614-.744-.923-1.607-1.727-2.47-2.531z"/></svg></svg>